<svg fill="none" viewBox="-60 -45 250 100" height="100" width="100" xmlns="http://www.w3.org/2000/svg">
<path fill="#C2E76B" d="M123.197 -71.7687C123.197 -71.7687 184.624 -51.7443 189.447 36.65C189.447 36.65 163.79 39.3117 139.183 9.06496C139.183 9.06496 174.757 65.8124 166.331 91.0895C166.331 91.0895 123.668 90.2756 106.308 58.1026C106.308 58.1026 117.459 98.9543 103.189 121.947C103.189 121.947 35.7364 116.2 37.9735 59.9571C37.9735 59.9571 30.9881 115.624 7.26429 127.307C7.26429 127.307 -44.8692 99.2978 -9.75193 17.7671C-9.75193 17.7671 -47.5759 18.218 -56.5506 -2.43657C-56.5506 -2.43657 -33.3024 -54.3165 0.311259 -65.946C0.311259 -65.946 -32.5355 -78.8267 -45.4351 -95.2579C-45.4351 -95.2579 -19.4806 -126.375 46.9989 -104.849C87.2391 -91.8155 123.197 -71.7687 123.197 -71.7687Z"></path>
</svg>
